# xmcd
#
# Track frame offsets:
#	150
#	7937
#	29175
#	49272
#	67597
#	84167
#	87880
#	105142
#	121537
#	144865
#	164402
#	180022
#	186347
#	207317
#	223420
#	239507
#
# Disc length: 3586 seconds
#
# Revision: 1
# Processed by: cddbd v1.5.1PL0 Copyright (c) Steve Scherf et al.
# Submitted via: CDex 1.50Beta5
#
DISCID=c70e0010
DTITLE=FIRE BALL - Book Of Life
DYEAR=1900
DGENRE=
TTITLE0=FIRE BALL/Intro
TTITLE1=FIRE BALL/到来
TTITLE2=FIRE BALL/KICK UP
TTITLE3=FIRE BALL/DA BALA
TTITLE4=FIRE BALL/SIMMER DOWN 〜RUDEBOY REMEMBER〜
TTITLE5=FIRE BALL/Interlude #1
TTITLE6=FIRE BALL/LIGHT UP THE FIRE 〜FB:着火のテーマ〜 ワタさんSPECIAL
TTITLE7=FIRE BALL/MACCHO,DELI/SAFE NO MORE
TTITLE8=FIRE BALL/平和依存
TTITLE9=FIRE BALL/雨が上がるまでの間
TTITLE10=FIRE BALL/YOYO-C/RUN COME 〜TRUTH MIX〜
TTITLE11=FIRE BALL/Interlude #2
TTITLE12=FIRE BALL/カントリーマン
TTITLE13=FIRE BALL/GUAN CHAI/星
TTITLE14=FIRE BALL/ラヂオ
TTITLE15=FIRE BALL/JUNGLE ROOTS
EXTD=
EXTT0=
EXTT1=
EXTT2=
EXTT3=
EXTT4=
EXTT5=
EXTT6=
EXTT7=
EXTT8=
EXTT9=
EXTT10=
EXTT11=
EXTT12=
EXTT13=
EXTT14=
EXTT15=
PLAYORDER=
